<svg width="103" height="38" viewBox="0 0 103 38" fill="none" xmlns="http://www.w3.org/2000/svg">
<path d="M23.3906 13.0938V16.75H13.2031V13.0938H23.3906ZM15.3438 8.89062H20.6094V24.4844C20.6094 24.9323 20.6615 25.2812 20.7656 25.5312C20.8698 25.7708 21.0469 25.9427 21.2969 26.0469C21.5573 26.1406 21.901 26.1875 22.3281 26.1875C22.6302 26.1875 22.8802 26.1823 23.0781 26.1719C23.276 26.151 23.4635 26.125 23.6406 26.0938V29.8594C23.1927 30.0052 22.724 30.1146 22.2344 30.1875C21.7448 30.2708 21.224 30.3125 20.6719 30.3125C19.5469 30.3125 18.5833 30.1354 17.7812 29.7812C16.9896 29.4271 16.3854 28.8698 15.9688 28.1094C15.5521 27.349 15.3438 26.3594 15.3438 25.1406V8.89062ZM30.6406 6V30H25.375V6H30.6406ZM30.0156 20.9688L28.7812 21C28.7812 19.8125 28.9271 18.7188 29.2188 17.7188C29.5104 16.7188 29.9271 15.849 30.4688 15.1094C31.0104 14.3698 31.6615 13.7969 32.4219 13.3906C33.1823 12.9844 34.026 12.7812 34.9531 12.7812C35.7865 12.7812 36.5469 12.901 37.2344 13.1406C37.9323 13.3802 38.5312 13.7656 39.0312 14.2969C39.5417 14.8281 39.9323 15.5208 40.2031 16.375C40.4844 17.2292 40.625 18.2708 40.625 19.5V30H35.3281V19.4688C35.3281 18.7812 35.2292 18.25 35.0312 17.875C34.8438 17.4896 34.5729 17.224 34.2188 17.0781C33.8646 16.9219 33.4323 16.8438 32.9219 16.8438C32.3073 16.8438 31.8073 16.9479 31.4219 17.1562C31.0365 17.3646 30.7396 17.6562 30.5312 18.0312C30.3333 18.3958 30.1979 18.8281 30.125 19.3281C30.0521 19.8281 30.0156 20.375 30.0156 20.9688ZM52.3281 25.75V18.7812C52.3281 18.3021 52.2604 17.8906 52.125 17.5469C51.9896 17.2031 51.776 16.9375 51.4844 16.75C51.1927 16.5521 50.8021 16.4531 50.3125 16.4531C49.9167 16.4531 49.5781 16.5208 49.2969 16.6562C49.0156 16.7917 48.8021 16.9948 48.6562 17.2656C48.5104 17.5365 48.4375 17.8802 48.4375 18.2969H43.1719C43.1719 17.5156 43.3438 16.7917 43.6875 16.125C44.0417 15.4479 44.5417 14.8594 45.1875 14.3594C45.8438 13.8594 46.625 13.474 47.5312 13.2031C48.4479 12.9219 49.4688 12.7812 50.5938 12.7812C51.9375 12.7812 53.1354 13.0052 54.1875 13.4531C55.25 13.901 56.0885 14.5729 56.7031 15.4688C57.3177 16.3542 57.625 17.4688 57.625 18.8125V25.7344C57.625 26.8385 57.6875 27.6771 57.8125 28.25C57.9375 28.8125 58.1146 29.3073 58.3438 29.7344V30H53.0625C52.8125 29.4792 52.625 28.8438 52.5 28.0938C52.3854 27.3333 52.3281 26.5521 52.3281 25.75ZM52.9688 19.6719L53 22.4844H50.6719C50.1823 22.4844 49.7656 22.5521 49.4219 22.6875C49.0885 22.8229 48.8177 23.0104 48.6094 23.25C48.4115 23.4792 48.2656 23.7396 48.1719 24.0312C48.0885 24.3229 48.0469 24.6302 48.0469 24.9531C48.0469 25.2656 48.1198 25.5469 48.2656 25.7969C48.4219 26.0365 48.6302 26.224 48.8906 26.3594C49.151 26.4948 49.4427 26.5625 49.7656 26.5625C50.349 26.5625 50.8438 26.4531 51.25 26.2344C51.6667 26.0052 51.9844 25.7292 52.2031 25.4062C52.4219 25.0833 52.5312 24.7812 52.5312 24.5L53.6875 26.6562C53.4792 27.0729 53.2396 27.4948 52.9688 27.9219C52.7083 28.349 52.3802 28.7448 51.9844 29.1094C51.599 29.4635 51.125 29.7552 50.5625 29.9844C50 30.2031 49.3177 30.3125 48.5156 30.3125C47.474 30.3125 46.5156 30.099 45.6406 29.6719C44.776 29.2448 44.0833 28.651 43.5625 27.8906C43.0417 27.1198 42.7812 26.2344 42.7812 25.2344C42.7812 24.3594 42.9375 23.5781 43.25 22.8906C43.5729 22.2031 44.0573 21.6198 44.7031 21.1406C45.349 20.6615 46.1719 20.2969 47.1719 20.0469C48.1719 19.7969 49.349 19.6719 50.7031 19.6719H52.9688ZM66.1094 6V30H60.8281V6H66.1094ZM69.4062 6H74.6719V25.8438L74.125 30H69.4062V6ZM85.0469 21.3594V21.6875C85.0469 22.9688 84.9167 24.1354 84.6562 25.1875C84.3958 26.2396 83.9948 27.151 83.4531 27.9219C82.9115 28.6823 82.2292 29.2708 81.4062 29.6875C80.5833 30.1042 79.6094 30.3125 78.4844 30.3125C77.4635 30.3125 76.5885 30.0938 75.8594 29.6562C75.1302 29.2083 74.5208 28.5938 74.0312 27.8125C73.5417 27.0208 73.1458 26.1094 72.8438 25.0781C72.5417 24.0365 72.3021 22.9219 72.125 21.7344V21.3438C72.3021 20.1667 72.5417 19.0625 72.8438 18.0312C73.1458 16.9896 73.5417 16.0781 74.0312 15.2969C74.5208 14.5052 75.125 13.8906 75.8438 13.4531C76.5729 13.0052 77.4427 12.7812 78.4531 12.7812C79.5885 12.7812 80.5677 12.9948 81.3906 13.4219C82.224 13.849 82.9115 14.4479 83.4531 15.2188C83.9948 15.9896 84.3958 16.8958 84.6562 17.9375C84.9167 18.9792 85.0469 20.1198 85.0469 21.3594ZM79.7812 21.6875V21.3594C79.7812 20.7448 79.7448 20.1667 79.6719 19.625C79.599 19.0833 79.4688 18.6042 79.2812 18.1875C79.0938 17.7708 78.8281 17.4427 78.4844 17.2031C78.1406 16.9635 77.6927 16.8438 77.1406 16.8438C76.5781 16.8438 76.1042 16.9375 75.7188 17.125C75.3438 17.3125 75.0417 17.5833 74.8125 17.9375C74.5938 18.2812 74.4375 18.7083 74.3438 19.2188C74.25 19.7188 74.2083 20.2865 74.2188 20.9219V22.1562C74.1979 23.0208 74.276 23.7604 74.4531 24.375C74.6302 24.9896 74.9375 25.4583 75.375 25.7812C75.8125 26.1042 76.4115 26.2656 77.1719 26.2656C77.7344 26.2656 78.1875 26.1562 78.5312 25.9375C78.8854 25.7188 79.151 25.4062 79.3281 25C79.5052 24.5938 79.625 24.1094 79.6875 23.5469C79.75 22.9844 79.7812 22.3646 79.7812 21.6875ZM92.3906 28.0156L96.7656 13.0938H102.422L95.625 32.5156C95.4792 32.9427 95.2865 33.401 95.0469 33.8906C94.8073 34.3906 94.4792 34.8646 94.0625 35.3125C93.6458 35.7604 93.1094 36.125 92.4531 36.4062C91.8073 36.6875 91.0052 36.8281 90.0469 36.8281C89.5365 36.8281 89.1615 36.8021 88.9219 36.75C88.6927 36.7083 88.3385 36.6302 87.8594 36.5156V32.75C87.9948 32.75 88.1094 32.75 88.2031 32.75C88.3073 32.75 88.4219 32.75 88.5469 32.75C89.1094 32.75 89.5573 32.6927 89.8906 32.5781C90.2344 32.4635 90.4948 32.2969 90.6719 32.0781C90.8594 31.8594 91.0052 31.5938 91.1094 31.2812L92.3906 28.0156ZM91.2812 13.0938L94.6094 24.9219L95.1875 30.5H91.6562L85.6406 13.0938H91.2812Z" fill="black"/>
<circle cx="5.5" cy="19" r="5" fill="#0033FF"/>
</svg>
